<svg xmlns="http://www.w3.org/2000/svg" viewBox="0 0 280 590">
  <defs>
    <style>
      .cls-1 {
        fill-rule: evenodd;
      }
    </style>
  </defs>
  <path id="screenMask" class="cls-1" d="M0,50 
    C0,22.386 22.386,0 50,0 
    H55 
    C55,0 65,0 70,0 
    C85,0 85,10 85,10 
    C85,10 85,15 85,20 
    C85,30 95,30 95,30 
    H185 
    C185,30 195,30 195,20 
    C195,15 195,10 195,10 
    C195,10 195,0 210,0 
    C215,0 225,0 230,0 
    H540 
    C567.614,0 590,22.386 590,50 
    V230 
    C590,257.614 567.614,280 540,280 
    H50 
    C22.386,280 0,257.614 0,230 
    V50 
    Z" transform="rotate(-90) translate(-280,0)"/>
</svg> 