<svg xmlns="http://www.w3.org/2000/svg" width="120" height="120" viewBox="0 0 120 120">
  <defs>
    <style>
      .cls-1 {
        fill-rule: evenodd;
      }
    </style>
  </defs>
  <path id="Background" class="cls-1" d="M6821,495.533h-4.281c-1.2,0-2.4-.04-3.642-0.04a57.7,57.7,0,0,0-7.882-.68,26.144,26.144,0,0,0-7.483-2.48,25.115,25.115,0,0,0-11.044-11.04,26.118,26.118,0,0,0-2.481-7.49,47.28,47.28,0,0,0-.68-7.88c-0.04-1.2-0.04-2.4-0.04-3.64v-53.5c0-1.2.04-2.4.04-3.64a57.813,57.813,0,0,0,.68-7.88,26.323,26.323,0,0,0,2.481-7.49,25.115,25.115,0,0,0,11.044-11.04,26.144,26.144,0,0,0,7.483-2.48,47.313,47.313,0,0,0,7.882-.68c1.2-.04,2.4-.04,3.642-0.04h53.5c1.2,0,2.4.04,3.641.04a57.7,57.7,0,0,0,7.883.68,26.137,26.137,0,0,0,7.482,2.48,25.115,25.115,0,0,0,11.044,11.04,26.261,26.261,0,0,0,2.481,7.49,47.28,47.28,0,0,0,.68,7.88c0.04,1.2.04,2.4.04,3.64v53.5c0,1.2-.04,2.4-.04,3.64a57.654,57.654,0,0,0-.68,7.88,26.057,26.057,0,0,0-2.481,7.49,25.115,25.115,0,0,0-11.044,11.04,26.137,26.137,0,0,0-7.482,2.48,47.316,47.316,0,0,0-7.883.68c-1.2.04-2.4.04-3.641.04V495.533h0Z" transform="rotate(90) translate(-458 -6821)"/>
</svg>
